<mxfile host="Electron" modified="2024-04-17T12:08:21.612Z" agent="Mozilla/5.0 (Windows NT 10.0; Win64; x64) AppleWebKit/537.36 (KHTML, like Gecko) draw.io/24.1.0 Chrome/120.0.6099.109 Electron/28.1.0 Safari/537.36" etag="2zdaIwcQB0kne8nrP1O-" version="24.1.0" type="device">
  <diagram name="ページ1" id="jInCUQgzG5zf4pvRbxTS">
    <mxGraphModel dx="683" dy="398" grid="1" gridSize="10" guides="1" tooltips="1" connect="1" arrows="1" fold="1" page="1" pageScale="1" pageWidth="1169" pageHeight="827" math="1" shadow="0">
      <root>
        <mxCell id="0" />
        <mxCell id="1" parent="0" />
        <mxCell id="9MXinGhX2XfdrZYWS_ls-20" style="edgeStyle=orthogonalEdgeStyle;rounded=0;orthogonalLoop=1;jettySize=auto;html=1;exitX=1;exitY=0.5;exitDx=0;exitDy=0;exitPerimeter=0;strokeColor=default;align=center;verticalAlign=middle;fontFamily=Helvetica;fontSize=11;fontColor=default;labelBackgroundColor=default;endArrow=none;endFill=0;entryX=1.085;entryY=0.604;entryDx=0;entryDy=0;entryPerimeter=0;" edge="1" parent="1" source="9MXinGhX2XfdrZYWS_ls-2" target="9MXinGhX2XfdrZYWS_ls-16">
          <mxGeometry relative="1" as="geometry">
            <mxPoint x="549.9999999999999" y="180" as="targetPoint" />
            <Array as="points">
              <mxPoint x="540" y="240" />
              <mxPoint x="540" y="182" />
              <mxPoint x="520" y="182" />
            </Array>
          </mxGeometry>
        </mxCell>
        <mxCell id="9MXinGhX2XfdrZYWS_ls-2" value="" style="verticalLabelPosition=bottom;shadow=0;dashed=0;align=center;html=1;verticalAlign=top;shape=mxgraph.electrical.transistors.pmos_bulk;pointerEvents=1;" vertex="1" parent="1">
          <mxGeometry x="460" y="190" width="60" height="100" as="geometry" />
        </mxCell>
        <mxCell id="9MXinGhX2XfdrZYWS_ls-3" value="" style="verticalLabelPosition=bottom;shadow=0;dashed=0;align=center;fillColor=strokeColor;html=1;verticalAlign=top;strokeWidth=1;shape=mxgraph.electrical.miscellaneous.monocell_battery;direction=north;" vertex="1" parent="1">
          <mxGeometry x="410" y="140" width="60" height="100" as="geometry" />
        </mxCell>
        <mxCell id="9MXinGhX2XfdrZYWS_ls-4" value="" style="verticalLabelPosition=bottom;shadow=0;dashed=0;align=center;fillColor=strokeColor;html=1;verticalAlign=top;strokeWidth=1;shape=mxgraph.electrical.miscellaneous.monocell_battery;direction=north;" vertex="1" parent="1">
          <mxGeometry x="570" y="170" width="60" height="100" as="geometry" />
        </mxCell>
        <mxCell id="9MXinGhX2XfdrZYWS_ls-5" value="" style="verticalLabelPosition=bottom;shadow=0;dashed=0;align=center;fillColor=strokeColor;html=1;verticalAlign=top;strokeWidth=1;shape=mxgraph.electrical.miscellaneous.monocell_battery;direction=north;" vertex="1" parent="1">
          <mxGeometry x="490" y="287.14" width="60" height="100" as="geometry" />
        </mxCell>
        <mxCell id="9MXinGhX2XfdrZYWS_ls-6" value="" style="pointerEvents=1;verticalLabelPosition=bottom;shadow=0;dashed=0;align=center;html=1;verticalAlign=top;shape=mxgraph.electrical.signal_sources.signal_ground;fontFamily=Helvetica;fontSize=24;fontColor=default;" vertex="1" parent="1">
          <mxGeometry x="497.5" y="370" width="45" height="30" as="geometry" />
        </mxCell>
        <mxCell id="9MXinGhX2XfdrZYWS_ls-7" value="" style="shape=waypoint;sketch=0;fillStyle=solid;size=6;pointerEvents=1;points=[];fillColor=none;resizable=0;rotatable=0;perimeter=centerPerimeter;snapToPoint=1;fontFamily=Helvetica;fontSize=11;fontColor=default;" vertex="1" parent="1">
          <mxGeometry x="510" y="287.14" width="20" height="20" as="geometry" />
        </mxCell>
        <mxCell id="9MXinGhX2XfdrZYWS_ls-8" style="edgeStyle=orthogonalEdgeStyle;rounded=0;orthogonalLoop=1;jettySize=auto;html=1;exitX=1;exitY=1;exitDx=0;exitDy=0;exitPerimeter=0;entryX=0.521;entryY=0.029;entryDx=0;entryDy=0;entryPerimeter=0;endArrow=none;endFill=0;" edge="1" parent="1" source="9MXinGhX2XfdrZYWS_ls-2" target="9MXinGhX2XfdrZYWS_ls-7">
          <mxGeometry relative="1" as="geometry" />
        </mxCell>
        <mxCell id="9MXinGhX2XfdrZYWS_ls-9" style="edgeStyle=orthogonalEdgeStyle;rounded=0;orthogonalLoop=1;jettySize=auto;html=1;exitX=1;exitY=0.5;exitDx=0;exitDy=0;exitPerimeter=0;entryX=0.664;entryY=0.914;entryDx=0;entryDy=0;entryPerimeter=0;strokeColor=default;align=center;verticalAlign=middle;fontFamily=Helvetica;fontSize=11;fontColor=default;labelBackgroundColor=default;endArrow=none;endFill=0;" edge="1" parent="1" source="9MXinGhX2XfdrZYWS_ls-5" target="9MXinGhX2XfdrZYWS_ls-7">
          <mxGeometry relative="1" as="geometry" />
        </mxCell>
        <mxCell id="9MXinGhX2XfdrZYWS_ls-10" style="edgeStyle=orthogonalEdgeStyle;rounded=0;orthogonalLoop=1;jettySize=auto;html=1;exitX=0;exitY=0.5;exitDx=0;exitDy=0;exitPerimeter=0;entryX=0.979;entryY=0.514;entryDx=0;entryDy=0;entryPerimeter=0;strokeColor=default;align=center;verticalAlign=middle;fontFamily=Helvetica;fontSize=11;fontColor=default;labelBackgroundColor=default;endArrow=none;endFill=0;" edge="1" parent="1" source="9MXinGhX2XfdrZYWS_ls-4" target="9MXinGhX2XfdrZYWS_ls-7">
          <mxGeometry relative="1" as="geometry">
            <Array as="points">
              <mxPoint x="600" y="297" />
            </Array>
          </mxGeometry>
        </mxCell>
        <mxCell id="9MXinGhX2XfdrZYWS_ls-11" style="edgeStyle=orthogonalEdgeStyle;rounded=0;orthogonalLoop=1;jettySize=auto;html=1;exitX=0;exitY=0.5;exitDx=0;exitDy=0;exitPerimeter=0;entryX=0;entryY=0.5;entryDx=0;entryDy=0;entryPerimeter=0;strokeColor=default;align=center;verticalAlign=middle;fontFamily=Helvetica;fontSize=11;fontColor=default;labelBackgroundColor=default;endArrow=none;endFill=0;" edge="1" parent="1" source="9MXinGhX2XfdrZYWS_ls-3" target="9MXinGhX2XfdrZYWS_ls-2">
          <mxGeometry relative="1" as="geometry" />
        </mxCell>
        <mxCell id="9MXinGhX2XfdrZYWS_ls-12" value="" style="shape=waypoint;sketch=0;fillStyle=solid;size=6;pointerEvents=1;points=[];fillColor=none;resizable=0;rotatable=0;perimeter=centerPerimeter;snapToPoint=1;fontFamily=Helvetica;fontSize=11;fontColor=default;labelBackgroundColor=default;" vertex="1" parent="1">
          <mxGeometry x="510" y="130" width="20" height="20" as="geometry" />
        </mxCell>
        <mxCell id="9MXinGhX2XfdrZYWS_ls-13" style="edgeStyle=orthogonalEdgeStyle;rounded=0;orthogonalLoop=1;jettySize=auto;html=1;exitX=1;exitY=0.5;exitDx=0;exitDy=0;exitPerimeter=0;entryX=0.064;entryY=0.695;entryDx=0;entryDy=0;entryPerimeter=0;strokeColor=default;align=center;verticalAlign=middle;fontFamily=Helvetica;fontSize=11;fontColor=default;labelBackgroundColor=default;endArrow=none;endFill=0;" edge="1" parent="1" source="9MXinGhX2XfdrZYWS_ls-3" target="9MXinGhX2XfdrZYWS_ls-12">
          <mxGeometry relative="1" as="geometry">
            <Array as="points">
              <mxPoint x="470" y="140" />
              <mxPoint x="470" y="140" />
            </Array>
          </mxGeometry>
        </mxCell>
        <mxCell id="9MXinGhX2XfdrZYWS_ls-14" style="edgeStyle=orthogonalEdgeStyle;rounded=0;orthogonalLoop=1;jettySize=auto;html=1;exitX=1;exitY=0.5;exitDx=0;exitDy=0;exitPerimeter=0;entryX=0.921;entryY=0.505;entryDx=0;entryDy=0;entryPerimeter=0;strokeColor=default;align=center;verticalAlign=middle;fontFamily=Helvetica;fontSize=11;fontColor=default;labelBackgroundColor=default;endArrow=none;endFill=0;" edge="1" parent="1" source="9MXinGhX2XfdrZYWS_ls-4" target="9MXinGhX2XfdrZYWS_ls-12">
          <mxGeometry relative="1" as="geometry">
            <Array as="points">
              <mxPoint x="580" y="140" />
              <mxPoint x="580" y="140" />
            </Array>
          </mxGeometry>
        </mxCell>
        <mxCell id="9MXinGhX2XfdrZYWS_ls-16" value="" style="shape=waypoint;sketch=0;fillStyle=solid;size=6;pointerEvents=1;points=[];fillColor=none;resizable=0;rotatable=0;perimeter=centerPerimeter;snapToPoint=1;fontFamily=Helvetica;fontSize=11;fontColor=default;labelBackgroundColor=default;" vertex="1" parent="1">
          <mxGeometry x="510" y="171.86" width="20" height="20" as="geometry" />
        </mxCell>
        <mxCell id="9MXinGhX2XfdrZYWS_ls-17" style="edgeStyle=orthogonalEdgeStyle;rounded=0;orthogonalLoop=1;jettySize=auto;html=1;exitX=1;exitY=0;exitDx=0;exitDy=0;exitPerimeter=0;entryX=0.44;entryY=1.046;entryDx=0;entryDy=0;entryPerimeter=0;strokeColor=default;align=center;verticalAlign=middle;fontFamily=Helvetica;fontSize=11;fontColor=default;labelBackgroundColor=default;endArrow=none;endFill=0;" edge="1" parent="1" source="9MXinGhX2XfdrZYWS_ls-2" target="9MXinGhX2XfdrZYWS_ls-16">
          <mxGeometry relative="1" as="geometry" />
        </mxCell>
        <mxCell id="9MXinGhX2XfdrZYWS_ls-18" style="edgeStyle=orthogonalEdgeStyle;rounded=0;orthogonalLoop=1;jettySize=auto;html=1;entryX=0.594;entryY=-0.079;entryDx=0;entryDy=0;entryPerimeter=0;strokeColor=default;align=center;verticalAlign=middle;fontFamily=Helvetica;fontSize=11;fontColor=default;labelBackgroundColor=default;endArrow=none;endFill=0;" edge="1" parent="1" source="9MXinGhX2XfdrZYWS_ls-12" target="9MXinGhX2XfdrZYWS_ls-16">
          <mxGeometry relative="1" as="geometry" />
        </mxCell>
        <mxCell id="9MXinGhX2XfdrZYWS_ls-21" value="&lt;span style=&quot;font-size: 24px;&quot;&gt;`V_{D}`&lt;/span&gt;" style="text;html=1;align=center;verticalAlign=middle;resizable=0;points=[];autosize=1;strokeColor=none;fillColor=none;fontSize=11;fontFamily=Helvetica;fontColor=default;labelBackgroundColor=default;" vertex="1" parent="1">
          <mxGeometry x="410" y="317.14" width="100" height="40" as="geometry" />
        </mxCell>
        <mxCell id="9MXinGhX2XfdrZYWS_ls-22" value="&lt;span style=&quot;font-size: 24px;&quot;&gt;`V_{SD}`&lt;/span&gt;" style="text;html=1;align=center;verticalAlign=middle;resizable=0;points=[];autosize=1;strokeColor=none;fillColor=none;fontSize=11;fontFamily=Helvetica;fontColor=default;labelBackgroundColor=default;" vertex="1" parent="1">
          <mxGeometry x="575" y="230" width="120" height="40" as="geometry" />
        </mxCell>
        <mxCell id="9MXinGhX2XfdrZYWS_ls-23" value="&lt;span style=&quot;font-size: 24px;&quot;&gt;`V_{SG}`&lt;/span&gt;" style="text;html=1;align=center;verticalAlign=middle;resizable=0;points=[];autosize=1;strokeColor=none;fillColor=none;fontSize=11;fontFamily=Helvetica;fontColor=default;labelBackgroundColor=default;" vertex="1" parent="1">
          <mxGeometry x="340" y="191.86" width="120" height="40" as="geometry" />
        </mxCell>
      </root>
    </mxGraphModel>
  </diagram>
</mxfile>
